<svg width="1267" height="330" viewBox="0 0 1267 330" fill="none" xmlns="http://www.w3.org/2000/svg">
<path d="M1266.5 262.923H1132.93V241.833L1222.91 134.977H1132.93V106.856H1263.69V130.759L1173.7 234.803H1266.5V262.923Z" fill="black" stroke="black"/>
<path d="M1109.03 262.923H1076.69V106.856H1109.03V262.923Z" fill="black" stroke="black"/>
<path d="M1107.62 75.9243C1102.71 79.4119 1099.34 80.5831 1092.16 81.5484C1085.02 80.172 1082.96 78.8179 1080.91 75.9243C1077.14 70.3101 1076.15 67.6444 1075.28 63.2703C1076.56 56.022 1077.77 52.6223 1080.91 47.8042C1084.18 46.1142 1086.39 45.1795 1092.16 43.5862C1098.12 43.7967 1101.52 44.8646 1107.62 47.8042C1111.43 54.9951 1112.15 58.273 1111.84 63.2703C1111.12 69.7126 1110.28 72.6315 1107.62 75.9243Z" fill="black" stroke="black"/>
<path d="M608.489 329.006H574.744L602.865 258.705L533.97 106.856H567.714L619.737 222.149L667.541 106.856H702.691L608.489 329.006Z" fill="black" stroke="black"/>
<path d="M746.277 262.924H713.939V106.857H746.277V129.353C758.405 117.398 765.378 111.787 778.616 106.857C797.279 102.026 807.033 102.453 823.608 106.857C835.227 112.376 841.11 117.205 850.322 129.353C857.853 140.673 860.397 148.315 861.57 164.503V262.924H829.232V164.503C825.134 151.382 820.959 145.415 809.548 137.789C793.725 132.714 785.32 132.258 771.585 137.789C762.567 141.246 756.924 147.916 746.277 164.503V262.924Z" fill="black" stroke="black"/>
<path d="M923.434 264.329H891.096V36.5562H923.434V130.759C928.164 121.662 931.295 118.505 937.494 115.293C951.05 109.409 959.115 106.513 978.268 105.45C990.109 105.622 996.909 107.091 1009.2 111.075C1026.45 119.522 1033.86 126.066 1042.94 140.601C1050.84 157.017 1052.87 167.009 1054.19 185.593C1054.55 202.647 1052.45 212.715 1042.94 231.991C1031.82 248.445 1024.31 254.283 1009.2 260.111C997.325 263.266 990.548 264.16 978.268 264.329C965.498 264.173 959.001 263.28 948.742 260.111C936.916 255.388 931.534 250.833 923.434 240.427V264.329Z" fill="#5E63B6" stroke="#5E63B6"/>
<path d="M937.494 223.555C927.504 211.71 923.474 203.668 922.028 184.187C924.03 165.557 927.146 156.972 937.494 146.225C951.087 136.536 959.361 133.69 975.456 133.571C987.68 134.308 995.196 137.63 1009.2 146.225C1018.23 156.912 1021.82 164.629 1023.26 184.187C1024.07 200.304 1021.41 208.957 1009.2 223.555C1001.7 231.563 994.303 235.17 975.456 239.021C954.455 238.152 947.109 233.96 937.494 223.555Z" fill="white" stroke="#5E63B6"/>
<path d="M476.324 136.383V219.337C478.397 228.549 480.969 232.435 488.978 236.209H519.91V261.517C498.038 264.939 488.404 264.964 476.324 261.517C465.822 259.05 462.295 256.698 458.046 251.675C448.712 244.878 446.434 239.962 443.986 230.585V136.383H415.866V106.856H443.986V54.8342H476.324V106.856H526.94V136.383H476.324Z" fill="black" stroke="black"/>
<circle cx="174.197" cy="158.879" r="157.879" fill="white" stroke="#39E991" stroke-width="2"/>
<path d="M178.415 64.5743L153.106 274.069C173.972 279.152 185.668 279.617 206.535 274.069C228.638 268.684 238.653 261.005 252.933 240.325C257.107 219.308 254.844 208.222 241.685 189.709C216.265 170.915 202.446 168.828 178.415 177.055L195.287 64.5743C188.698 56.9715 185.004 57.4555 178.415 64.5743Z" fill="#5E63B6" stroke="#5E63B6"/>
<path d="M219.189 199.55C206.697 194.271 198.235 193.557 178.415 199.55L168.573 261.415C180.607 264.041 187.841 264.398 202.317 261.415C219.215 256.45 225.601 250.874 233.249 237.513C236.468 215.801 233.317 207.503 219.189 199.55Z" fill="white" stroke="white"/>
<path d="M112.332 198.247C102.509 255.665 98.8944 285.504 98.2722 320.57H102.49C109.507 271.505 113.519 244.813 120.768 198.247C126.067 161.27 129.132 141.59 134.828 108.263L148.888 43.5862L154.512 11.248H148.888L140.452 43.5862L130.61 89.9844C122.117 133.526 117.855 157.472 112.332 198.247Z" fill="black" stroke="black" stroke-width="5"/>
<path d="M150.295 37.9619C235.425 30.9801 273.699 30.5325 338.699 30.9318C338.699 30.9318 338.699 37.9619 331.669 37.9619C324.639 37.9619 240.18 42.4734 179.821 44.9919L112.332 49.2099C87.1352 50.7798 74.3302 52.7274 53.2801 57.646C38.1003 60.2163 30.2755 62.621 16.7239 67.488L8.2879 77.3301C8.2879 77.3301 5.58394 77.9789 4.06988 77.3301C0.537095 75.816 4.06988 67.488 4.06988 67.488C30.6378 54.5186 46.192 49.1494 75.7762 44.9919C100.897 42.0111 116.447 40.4207 150.295 37.9619Z" fill="black" stroke="black" stroke-width="5"/>
</svg>
