<svg xmlns="http://www.w3.org/2000/svg" viewBox="0 0 291.17 76.8"><defs><style>.cls-1{fill:#412984;}</style></defs><g id="Capa_2" data-name="Capa 2"><g id="Capa_1-2" data-name="Capa 1"><path class="cls-1" d="M213.28,53.22l-.12,2.13h-8.57V2.81h8.57V25.34c0-.66,3.17-2,3.76-2.2a15.76,15.76,0,0,1,13.63,1,17.38,17.38,0,0,1,8.23,14.61,16.51,16.51,0,0,1-4.17,11.48C228.79,56.58,221.29,57.67,213.28,53.22ZM230.14,39a8.46,8.46,0,1,0-8.53,8.72A8.76,8.76,0,0,0,230.14,39Z"/><path class="cls-1" d="M276.14,47.74h15v7.65H265.24c0-2.4-.05-4.8,0-7.19,0-.47.51-1,.86-1.38l13.1-15.21c.37-.42.72-.85,1.31-1.53H265.29V22.6h25.86c0,2.38.06,4.78,0,7.17,0,.51-.62,1-1,1.49q-6.39,7.53-12.79,15C277,46.66,276.69,47.06,276.14,47.74Z"/><path class="cls-1" d="M100.27,30.19H95.83V22.77h4.41V9.93h8.56V22.69h9.46v7.4h-9.4V37.8c0,1.75,0,3.49,0,5.24,0,2.7,1.38,4,4.06,4.06,1.73,0,3.47,0,5.3,0,.76,2.77,1.49,5.46,2.33,8.56-4-.2-7.74,0-11.33-.67-5.71-1.1-8.88-5.69-9-12,0-3.6,0-7.21,0-10.81Z"/><path class="cls-1" d="M256,22.6V55.4h-9.21V22.6Z"/><path class="cls-1" d="M256.81,13a5.37,5.37,0,0,1-5.52,5.53,5.61,5.61,0,0,1-5.55-5.45,5.57,5.57,0,0,1,5.63-5.51A5.35,5.35,0,0,1,256.81,13Z"/><path class="cls-1" d="M196.3,55.35h-9V53.66c0-.91,0-1.82,0-2.73,0-4.38,0-8.76,0-13.13a6.7,6.7,0,0,0-5.53-6.72,6.86,6.86,0,0,0-7.52,3.55,8.49,8.49,0,0,0-.8,3.55c-.06,4-.05,7.88,0,11.86,0,1.77,0,3.54,0,5.32h-8.92V22.58h8.83c0,.54.08,1,.11,1.51l0,.38c.11,0,.27.1.3.07a7.75,7.75,0,0,1,2.52-1.77,15,15,0,0,1,4.93-.83h.12a15.14,15.14,0,0,1,15,15.14Z"/><path class="cls-1" d="M159.36,22.51c-.22.65-.38,1.17-.58,1.67Q149,48.61,139.13,73c-.36.88-.76,1.34-1.54,1.46h-8.51c2.49-6.07,4.9-11.87,7.22-17.7a4,4,0,0,0,0-2.64c-3.88-9.87-7.84-19.71-11.78-29.56-.25-.62-.46-1.25-.78-2.09H132a2,2,0,0,1,1.86,1.25h0l.47,1.16c2.22,5.42,4.39,10.86,6.58,16.3l.64,1.55c.32-.63.55-1,.72-1.44,2.37-5.82,4.76-11.62,7.05-17.47l0-.07h0a2,2,0,0,1,1.87-1.27h1.47c1.76,0,3.55,0,5.41,0Z"/><ellipse class="cls-1" cx="37.58" cy="31.31" rx="21.02" ry="15.97" transform="translate(-7.8 13.05) rotate(-17.89)"/><ellipse class="cls-1" cx="60.3" cy="48.43" rx="13.41" ry="9.05" transform="translate(-16.91 52.97) rotate(-42.13)"/><ellipse class="cls-1" cx="69.28" cy="24.71" rx="8.13" ry="10.51" transform="translate(-3.07 37.95) rotate(-30)"/><ellipse class="cls-1" cx="53.66" cy="9.87" rx="4.83" ry="10.09" transform="translate(40 62.69) rotate(-85.92)"/><ellipse class="cls-1" cx="30.17" cy="11.63" rx="8.53" ry="3.73" transform="translate(-2.09 13.8) rotate(-24.93)"/><ellipse class="cls-1" cx="14.03" cy="25.02" rx="7.49" ry="3.91" transform="translate(-14.6 23.2) rotate(-57.09)"/><ellipse class="cls-1" cx="2.76" cy="33.2" rx="4.95" ry="2.44" transform="translate(-29.76 25.95) rotate(-72.68)"/><ellipse class="cls-1" cx="17.39" cy="12.69" rx="4.38" ry="1.81" transform="translate(-4.12 13.62) rotate(-38.59)"/><ellipse class="cls-1" cx="43.4" cy="1.93" rx="4.84" ry="1.81" transform="translate(0.19 6.41) rotate(-8.46)"/><ellipse class="cls-1" cx="12.36" cy="44.23" rx="5.78" ry="7.96" transform="translate(-15.07 7.4) rotate(-21.06)"/><ellipse class="cls-1" cx="74.22" cy="8.19" rx="3.85" ry="5.92" transform="translate(38.13 73.56) rotate(-67.39)"/><ellipse class="cls-1" cx="82.6" cy="46.62" rx="8.89" ry="5.99" transform="translate(9.74 107.34) rotate(-69.24)"/><ellipse class="cls-1" cx="42.93" cy="71.17" rx="8.89" ry="5.62" transform="translate(-2.57 1.61) rotate(-2.09)"/><ellipse class="cls-1" cx="31.46" cy="56.51" rx="7.16" ry="12.13" transform="translate(-27.55 82.99) rotate(-85.06)"/><ellipse class="cls-1" cx="8.35" cy="58.81" rx="3.01" ry="5.13" transform="translate(-36.83 20.25) rotate(-41.44)"/></g></g></svg>