<svg xmlns="http://www.w3.org/2000/svg" viewBox="0 0 195.34 71.69"><defs><style>.cls-1{fill:#412984;}</style></defs><g id="Capa_2" data-name="Capa 2"><g id="Capa_1-2" data-name="Capa 1"><path class="cls-1" d="M117.45,50.42l-.12,2.13h-8.57V0h8.57V22.53c0-.66,3.17-2,3.76-2.2a15.87,15.87,0,0,1,13.63,1A17.39,17.39,0,0,1,143,35.91a16.52,16.52,0,0,1-4.17,11.49C133,53.77,125.46,54.86,117.45,50.42Zm16.86-14.26a8.46,8.46,0,1,0-16.91,0,8.46,8.46,0,1,0,16.91,0Z"/><path class="cls-1" d="M180.31,44.93h15v7.66H169.41c0-2.41,0-4.8,0-7.19,0-.48.51-1,.86-1.38q6.54-7.62,13.1-15.21l1.31-1.54H169.46V19.8h25.87c0,2.38,0,4.77-.05,7.16,0,.52-.62,1-1,1.5l-12.79,15C181.16,43.86,180.86,44.25,180.31,44.93Z"/><path class="cls-1" d="M4.44,27.39H0V20H4.42V7.12H13V19.88h9.46v7.4H13V35c0,1.74,0,3.49,0,5.23,0,2.7,1.38,4,4.06,4.07,1.73,0,3.47,0,5.3,0,.76,2.78,1.49,5.46,2.33,8.56-4-.2-7.74,0-11.33-.67-5.71-1.09-8.88-5.68-8.95-12,0-3.6,0-7.2,0-10.8Z"/><path class="cls-1" d="M160.14,19.79v32.8h-9.21V19.79Z"/><path class="cls-1" d="M161,10.18a5.36,5.36,0,0,1-5.52,5.53,5.61,5.61,0,0,1-5.55-5.45,5.57,5.57,0,0,1,5.63-5.51A5.35,5.35,0,0,1,161,10.18Z"/><path class="cls-1" d="M100.47,52.55h-9V50.86c0-.91,0-1.83,0-2.74,0-4.38,0-8.76,0-13.13a6.7,6.7,0,0,0-5.53-6.72,6.85,6.85,0,0,0-7.52,3.56,8.45,8.45,0,0,0-.8,3.55c-.06,3.94,0,7.87,0,11.86,0,1.76,0,3.53,0,5.31H68.62V19.77h8.83c0,.54.08,1,.11,1.51l0,.38c.11,0,.27.1.3.07A7.75,7.75,0,0,1,80.41,20a15,15,0,0,1,4.93-.82h.12a15.13,15.13,0,0,1,15,15.13Z"/><path class="cls-1" d="M63.53,19.7c-.22.66-.38,1.17-.58,1.67Q53.13,45.8,43.3,70.23c-.36.89-.76,1.34-1.54,1.46H33.25c2.49-6.07,4.9-11.87,7.22-17.7a4,4,0,0,0,0-2.64c-3.88-9.87-7.84-19.71-11.78-29.56-.25-.61-.46-1.24-.78-2.09h8.24A2,2,0,0,1,38.05,21h0l.47,1.16c2.22,5.42,4.4,10.86,6.59,16.3.16.41.34.83.63,1.55.32-.63.55-1,.72-1.44,2.37-5.81,4.76-11.62,7-17.47l0-.06h0a2,2,0,0,1,1.87-1.28h1.47c1.76,0,3.55,0,5.41,0Z"/></g></g></svg>